<mxfile host="app.diagrams.net" agent="Mozilla/5.0 (Windows NT 10.0; Win64; x64) AppleWebKit/537.36 (KHTML, like Gecko) Chrome/123.0.0.0 Safari/537.36 Edg/123.0.0.0" version="28.1.1">
  <diagram name="第 1 页" id="KvU5L5FheR8y0WuMKVb0">
    <mxGraphModel dx="1880" dy="1058" grid="1" gridSize="10" guides="1" tooltips="1" connect="1" arrows="1" fold="1" page="1" pageScale="1" pageWidth="827" pageHeight="1169" math="0" shadow="0">
      <root>
        <mxCell id="0" />
        <mxCell id="1" parent="0" />
        <mxCell id="ofjoRmnTMcM3BUfexInN-1" value="工作人员操作" style="whiteSpace=wrap;strokeWidth=2;" vertex="1" parent="1">
          <mxGeometry x="20" y="398" width="1143" height="293" as="geometry" />
        </mxCell>
        <mxCell id="ofjoRmnTMcM3BUfexInN-2" value="客户操作" style="whiteSpace=wrap;strokeWidth=2;" vertex="1" parent="1">
          <mxGeometry x="347" y="20" width="1111" height="158" as="geometry" />
        </mxCell>
        <mxCell id="ofjoRmnTMcM3BUfexInN-3" value="开始质保登记" style="rounded=1;whiteSpace=wrap;arcSize=50;strokeWidth=2;" vertex="1" parent="1">
          <mxGeometry x="111" y="85" width="121" height="39" as="geometry" />
        </mxCell>
        <mxCell id="ofjoRmnTMcM3BUfexInN-4" value="扫描产品包装上的二维码&#xa;进入登记界面" style="whiteSpace=wrap;strokeWidth=2;" vertex="1" parent="1">
          <mxGeometry x="372" y="65" width="236" height="78" as="geometry" />
        </mxCell>
        <mxCell id="ofjoRmnTMcM3BUfexInN-5" value="扫描产品SN码&#xa;系统自动识别产品信息" style="whiteSpace=wrap;strokeWidth=2;" vertex="1" parent="1">
          <mxGeometry x="658" y="55" width="220" height="78" as="geometry" />
        </mxCell>
        <mxCell id="ofjoRmnTMcM3BUfexInN-6" value="上传购买凭证照片" style="whiteSpace=wrap;strokeWidth=2;" vertex="1" parent="1">
          <mxGeometry x="950" y="67" width="188" height="54" as="geometry" />
        </mxCell>
        <mxCell id="ofjoRmnTMcM3BUfexInN-7" value="填写并提交&#xa;个人信息登记表" style="whiteSpace=wrap;strokeWidth=2;" vertex="1" parent="1">
          <mxGeometry x="1237" y="65" width="172" height="78" as="geometry" />
        </mxCell>
        <mxCell id="ofjoRmnTMcM3BUfexInN-8" value="系统自动提交" style="rhombus;strokeWidth=2;whiteSpace=wrap;" vertex="1" parent="1">
          <mxGeometry x="693" y="213" width="150" height="150" as="geometry" />
        </mxCell>
        <mxCell id="ofjoRmnTMcM3BUfexInN-9" value="等待审核" style="whiteSpace=wrap;strokeWidth=2;" vertex="1" parent="1">
          <mxGeometry x="982" y="261" width="124" height="54" as="geometry" />
        </mxCell>
        <mxCell id="ofjoRmnTMcM3BUfexInN-10" value="在管理后台查看待审核订单" style="whiteSpace=wrap;strokeWidth=2;" vertex="1" parent="1">
          <mxGeometry x="45" y="520" width="252" height="54" as="geometry" />
        </mxCell>
        <mxCell id="ofjoRmnTMcM3BUfexInN-11" value="核实购买凭证与产品信息" style="whiteSpace=wrap;strokeWidth=2;" vertex="1" parent="1">
          <mxGeometry x="372" y="520" width="236" height="54" as="geometry" />
        </mxCell>
        <mxCell id="ofjoRmnTMcM3BUfexInN-12" value="信息是否&#xa;真实有效?" style="rhombus;strokeWidth=2;whiteSpace=wrap;" vertex="1" parent="1">
          <mxGeometry x="694" y="474" width="148" height="148" as="geometry" />
        </mxCell>
        <mxCell id="ofjoRmnTMcM3BUfexInN-13" value="激活延保权益" style="whiteSpace=wrap;strokeWidth=2;" vertex="1" parent="1">
          <mxGeometry x="966" y="578" width="156" height="54" as="geometry" />
        </mxCell>
        <mxCell id="ofjoRmnTMcM3BUfexInN-14" value="驳回申请&#xa;并通知客户" style="whiteSpace=wrap;strokeWidth=2;" vertex="1" parent="1">
          <mxGeometry x="974" y="450" width="140" height="78" as="geometry" />
        </mxCell>
        <mxCell id="ofjoRmnTMcM3BUfexInN-15" value="系统发送激活成功通知" style="whiteSpace=wrap;strokeWidth=2;" vertex="1" parent="1">
          <mxGeometry x="1213" y="578" width="220" height="54" as="geometry" />
        </mxCell>
        <mxCell id="ofjoRmnTMcM3BUfexInN-16" value="完成" style="rounded=1;whiteSpace=wrap;arcSize=50;strokeWidth=2;" vertex="1" parent="1">
          <mxGeometry x="1508" y="586" width="57" height="39" as="geometry" />
        </mxCell>
        <mxCell id="ofjoRmnTMcM3BUfexInN-17" value="" style="curved=1;startArrow=none;endArrow=block;exitX=1;exitY=0.39;entryX=0;entryY=0.5;rounded=0;" edge="1" parent="1" source="ofjoRmnTMcM3BUfexInN-4" target="ofjoRmnTMcM3BUfexInN-5">
          <mxGeometry relative="1" as="geometry">
            <Array as="points">
              <mxPoint x="633" y="94" />
            </Array>
          </mxGeometry>
        </mxCell>
        <mxCell id="ofjoRmnTMcM3BUfexInN-18" value="" style="curved=1;startArrow=none;endArrow=block;exitX=1;exitY=0.5;entryX=0;entryY=0.5;rounded=0;" edge="1" parent="1" source="ofjoRmnTMcM3BUfexInN-5" target="ofjoRmnTMcM3BUfexInN-6">
          <mxGeometry relative="1" as="geometry">
            <Array as="points" />
          </mxGeometry>
        </mxCell>
        <mxCell id="ofjoRmnTMcM3BUfexInN-19" value="" style="curved=1;startArrow=none;endArrow=block;exitX=1;exitY=0.5;entryX=0;entryY=0.42;rounded=0;" edge="1" parent="1" source="ofjoRmnTMcM3BUfexInN-6" target="ofjoRmnTMcM3BUfexInN-7">
          <mxGeometry relative="1" as="geometry">
            <Array as="points">
              <mxPoint x="1188" y="94" />
            </Array>
          </mxGeometry>
        </mxCell>
        <mxCell id="ofjoRmnTMcM3BUfexInN-20" value="" style="curved=1;startArrow=none;endArrow=block;exitX=1;exitY=0.5;entryX=0;entryY=0.5;rounded=0;" edge="1" parent="1" source="ofjoRmnTMcM3BUfexInN-8" target="ofjoRmnTMcM3BUfexInN-9">
          <mxGeometry relative="1" as="geometry">
            <Array as="points" />
          </mxGeometry>
        </mxCell>
        <mxCell id="ofjoRmnTMcM3BUfexInN-21" value="" style="curved=1;startArrow=none;endArrow=block;exitX=1;exitY=0.51;entryX=0;entryY=0.51;rounded=0;" edge="1" parent="1" source="ofjoRmnTMcM3BUfexInN-10" target="ofjoRmnTMcM3BUfexInN-11">
          <mxGeometry relative="1" as="geometry">
            <Array as="points" />
          </mxGeometry>
        </mxCell>
        <mxCell id="ofjoRmnTMcM3BUfexInN-22" value="" style="curved=1;startArrow=none;endArrow=block;exitX=1;exitY=0.51;entryX=0;entryY=0.5;rounded=0;" edge="1" parent="1" source="ofjoRmnTMcM3BUfexInN-11" target="ofjoRmnTMcM3BUfexInN-12">
          <mxGeometry relative="1" as="geometry">
            <Array as="points" />
          </mxGeometry>
        </mxCell>
        <mxCell id="ofjoRmnTMcM3BUfexInN-23" value="是" style="curved=1;startArrow=none;endArrow=block;exitX=1;exitY=0.7;entryX=0;entryY=0.51;rounded=0;" edge="1" parent="1" source="ofjoRmnTMcM3BUfexInN-12" target="ofjoRmnTMcM3BUfexInN-13">
          <mxGeometry relative="1" as="geometry">
            <Array as="points">
              <mxPoint x="914" y="605" />
            </Array>
          </mxGeometry>
        </mxCell>
        <mxCell id="ofjoRmnTMcM3BUfexInN-24" value="否" style="curved=1;startArrow=none;endArrow=block;exitX=1;exitY=0.3;entryX=0;entryY=0.51;rounded=0;" edge="1" parent="1" source="ofjoRmnTMcM3BUfexInN-12" target="ofjoRmnTMcM3BUfexInN-14">
          <mxGeometry relative="1" as="geometry">
            <Array as="points">
              <mxPoint x="914" y="489" />
            </Array>
          </mxGeometry>
        </mxCell>
        <mxCell id="ofjoRmnTMcM3BUfexInN-25" value="" style="curved=1;startArrow=none;endArrow=block;exitX=1;exitY=0.51;entryX=0;entryY=0.72;rounded=0;" edge="1" parent="1" source="ofjoRmnTMcM3BUfexInN-14" target="ofjoRmnTMcM3BUfexInN-7">
          <mxGeometry relative="1" as="geometry">
            <Array as="points">
              <mxPoint x="1163" y="489" />
              <mxPoint x="1188" y="131" />
            </Array>
          </mxGeometry>
        </mxCell>
        <mxCell id="ofjoRmnTMcM3BUfexInN-26" value="" style="curved=1;startArrow=none;endArrow=block;exitX=1;exitY=0.51;entryX=0;entryY=0.51;rounded=0;" edge="1" parent="1" source="ofjoRmnTMcM3BUfexInN-13" target="ofjoRmnTMcM3BUfexInN-15">
          <mxGeometry relative="1" as="geometry">
            <Array as="points" />
          </mxGeometry>
        </mxCell>
        <mxCell id="ofjoRmnTMcM3BUfexInN-27" value="" style="curved=1;startArrow=none;endArrow=block;exitX=1;exitY=0.51;entryX=-0.01;entryY=0.5;rounded=0;" edge="1" parent="1" source="ofjoRmnTMcM3BUfexInN-15" target="ofjoRmnTMcM3BUfexInN-16">
          <mxGeometry relative="1" as="geometry">
            <Array as="points" />
          </mxGeometry>
        </mxCell>
        <mxCell id="ofjoRmnTMcM3BUfexInN-28" value="" style="curved=1;startArrow=none;endArrow=block;rounded=0;" edge="1" parent="1" source="ofjoRmnTMcM3BUfexInN-3" target="ofjoRmnTMcM3BUfexInN-2">
          <mxGeometry relative="1" as="geometry">
            <Array as="points" />
          </mxGeometry>
        </mxCell>
        <mxCell id="ofjoRmnTMcM3BUfexInN-29" value="" style="curved=1;startArrow=none;endArrow=block;rounded=0;" edge="1" parent="1" source="ofjoRmnTMcM3BUfexInN-2" target="ofjoRmnTMcM3BUfexInN-8">
          <mxGeometry relative="1" as="geometry">
            <Array as="points" />
          </mxGeometry>
        </mxCell>
      </root>
    </mxGraphModel>
  </diagram>
</mxfile>
